<svg width="auto" height="32px" viewBox="0 0 332 398" fill="none" xmlns="http://www.w3.org/2000/svg">
<path fill-rule="evenodd" clip-rule="evenodd" d="M93.7333 13C103.333 15.2667 109.867 18.3333 117.067 24.2L122.267 28.2L74 52.3333C47.4666 65.6667 25.4667 76.2 25.0667 75.8C24.6667 75.4 24.9333 70.0667 25.7333 63.8C28.8 37.4 45.2 18.4667 70 12.8667C79.8666 10.6 83.8666 10.7333 93.7333 13ZM137.733 65.2667C138 71.4 138.133 76.3333 137.867 76.3333C137.6 76.3333 127.867 71.5334 116.267 65.6667L95.2 55.1333L112.267 46.4667L129.333 37.9333L133.2 46.0667C136 52.3333 137.2 57 137.733 65.2667ZM119.333 89.8C119.333 101.133 116.4 109.4 109.6 117.133C94.8 133.933 67.7333 134.067 53.3333 117.267C47.6 110.6 44.9333 102.333 44.4 90.3333L44.1333 81L62.6666 71.5334L81.2 61.9333L100.267 71.4L119.333 81V89.8ZM32.2667 89.8C30.9333 94.8667 34.1333 108.733 38.2667 116.733C42.1333 123.8 52.6666 135 55.4666 135C56.1333 135 56.6666 136.733 56.6666 139V143H44.1333C37.2 143 30 143.533 28.1333 144.333L24.6667 145.667V117.8C24.6667 90.3334 24.6667 90.0667 27.7333 88.6C32.1333 86.4667 33.0667 86.7334 32.2667 89.8ZM135.733 88.8667C137.733 90.4667 138 93.5333 138 118.067V145.667L134.533 144.333C132.667 143.533 125.467 143 118.533 143C106.533 143 106 142.867 106 140.067C106 138.333 108.933 134.6 114.133 129.933C124.8 120.2 130 110.067 130.933 96.8667C131.333 91.4 132.133 87 132.533 87C132.933 87 134.4 87.9333 135.733 88.8667ZM87.4666 142.067L94 140.733V145.267C94 154.067 95.4666 155 108 155H119.333V165.8C119.333 175.933 119.2 176.467 116.667 175.667C112.267 174.2 100 174.733 94.1333 176.467C91.0666 177.4 87.0666 179.533 85.2 181.267L81.8666 184.333L77.6 181.133C71.4666 176.467 66.5333 174.867 57.7333 174.733L50 174.6V164.867V155H57.7333C62 155 66.1333 154.333 67.0667 153.4C68 152.467 68.6666 149.267 68.6666 146.2V140.6L74.8 141.933C78.8 142.867 83.3333 142.867 87.4666 142.067ZM38 167.133C38 178.867 37.8667 179.267 34 182.6C26 189.267 26 189.533 26 237C26 279.933 26 280.333 23.2 280.333C21.7333 280.333 18.6667 278.6 16.5333 276.467L12.6667 272.6V224.333C12.6667 172.733 12.9333 170.6 19.7333 163.133C22.9333 159.667 32 155.133 35.7333 155C37.7333 155 38 156.467 38 167.133ZM139.6 159.8C142.4 161.8 145.867 166.067 147.6 169.533C150.533 175.533 150.667 176.867 151.067 220.333C151.467 269 151.067 273.133 144.4 278.067C142.533 279.533 140.267 280.2 139.467 279.8C138.4 279.133 138 266.067 138 237.133V195.4L134.667 188.867C131.867 183.267 131.333 180.6 131.333 169.267C131.333 154.733 131.733 154.333 139.6 159.8ZM232.8 170.467C242.533 173.4 250.8 177.8 257.733 183.667L263.333 188.6V198.2C263.333 208.333 264.533 211 269.333 211C274.133 211 275.333 208.333 275.333 198.333C275.333 189.4 275.6 188.6 279.733 184.733C282 182.467 286.4 179.133 289.467 177.267C295.467 173.533 311.067 168.333 316.133 168.333H319.333V186.733C319.333 199.667 318.667 207.4 317.2 212.467C304.133 257.133 243.467 261.667 223.6 219.267C220.267 212.2 220 210.2 219.6 189.933L219.067 168.333H222.267C224.133 168.333 228.8 169.267 232.8 170.467ZM66.4 188.467C71.6 191.133 75.3333 195.4 75.3333 198.6C75.3333 202.6 80.9333 206.333 84.1333 204.6C85.4666 203.8 87.2 201 88 198.2C90.1333 190.6 96.1333 187 106.533 187C115.867 187 122.667 190.2 124.667 195.8C125.467 197.667 126 216.333 126 238.867C126 271.267 126.4 279.8 128.133 285.8C133.733 304.733 147.2 321 163.733 328.867C184.667 338.733 204.133 338.867 224 329C235.733 323.267 242.133 317.933 249.467 308.067C257.333 297.4 260.8 287.4 261.867 273.133L262.667 261.4L269.2 261.133L275.733 260.867L274.933 275C272.4 317.267 249.333 352.733 210.933 373C178 390.333 137.467 390.733 104 374.067C73.6 358.867 52 332.6 41.8667 298.733C39.0667 289.667 38.8 285.667 38.2667 242.6C37.8516 203.374 37.598 195.889 41.2148 192.235C42.245 191.194 43.5893 190.464 45.3333 189.4C49.8667 186.6 61.8667 186.067 66.4 188.467Z" fill="#CD4662"/>
</svg>
