<svg width="252" height="129" viewBox="0 0 252 129" fill="none" xmlns="http://www.w3.org/2000/svg">
<path d="M91.305 84.848C91.817 84.848 92.073 85.0613 92.073 85.488C92.073 86 91.817 86.256 91.305 86.256H87.081L86.953 85.744L87.081 86.256H62.889H58.153C57.641 86.256 57.385 86 57.385 85.488C57.385 85.0613 57.641 84.848 58.153 84.848C59.0917 84.848 59.945 84.464 60.713 83.696C61.481 82.928 61.609 81.648 61.097 79.856L62.889 86.128L54.953 57.456H31.145L23.209 86.128L25.001 79.856C24.489 81.648 24.617 82.928 25.385 83.696C26.153 84.464 27.0063 84.848 27.945 84.848C28.457 84.848 28.713 85.0613 28.713 85.488C28.713 86 28.457 86.256 27.945 86.256H23.209H18.857L18.985 85.872L18.857 86.256H14.633C14.2063 86.256 13.993 86 13.993 85.488C13.993 85.0613 14.2063 84.848 14.633 84.848C15.7423 84.848 16.8943 84.464 18.089 83.696C19.2837 82.928 20.137 81.648 20.649 79.856L40.489 7.92C40.6597 7.23733 40.745 6.768 40.745 6.51199H32.937C31.2303 6.51199 29.353 6.68266 27.305 7.02399C25.257 7.28 23.337 7.83466 21.545 8.688C19.8383 9.54133 18.3877 10.7787 17.193 12.4C15.9983 13.936 15.401 15.984 15.401 18.544C15.401 20.9333 16.2117 22.9813 17.833 24.688C19.4543 26.3093 21.5023 27.12 23.977 27.12C23.977 27.376 23.849 27.8453 23.593 28.528C23.337 29.1253 22.9103 29.7653 22.313 30.448C21.801 31.0453 21.033 31.6 20.009 32.112C19.0703 32.624 17.833 32.88 16.297 32.88C14.6757 32.88 13.0543 32.624 11.433 32.112C9.897 31.5147 8.489 30.704 7.209 29.68C5.929 28.656 4.905 27.4187 4.137 25.968C3.369 24.5173 2.985 22.8533 2.985 20.976C2.985 17.392 3.79567 14.4053 5.417 12.016C7.12367 9.54133 9.29967 7.57866 11.945 6.128C14.5903 4.592 17.5343 3.48266 20.777 2.8C24.105 2.11733 27.3477 1.77599 30.505 1.77599H36.905H39.593H42.153H52.137H63.785H69.033C69.4597 1.77599 69.673 2.032 69.673 2.544C69.673 2.97066 69.4597 3.184 69.033 3.184C67.9237 3.184 66.9423 3.568 66.089 4.336C65.2357 5.01866 65.0223 6.21333 65.449 7.92L85.289 79.856C85.801 81.648 86.6543 82.928 87.849 83.696C89.0437 84.464 90.1957 84.848 91.305 84.848ZM53.545 52.72L43.049 14.576L32.553 52.72H53.545ZM156.499 84.976C156.84 84.976 157.011 85.1893 157.011 85.616C157.011 86.0427 156.798 86.256 156.371 86.256H151.891H131.667H127.315C126.803 86.256 126.547 86.0427 126.547 85.616C126.547 85.1893 126.718 84.976 127.059 84.976C128.168 84.976 129.192 84.592 130.131 83.824C131.155 82.9707 131.667 81.648 131.667 79.856V43.504C131.667 42.9067 131.624 42.096 131.539 41.072C131.539 39.9627 131.368 38.896 131.027 37.872C130.686 36.848 130.174 35.952 129.491 35.184C128.808 34.416 127.827 34.032 126.547 34.032C125.267 34.032 123.987 34.544 122.707 35.568C121.512 36.592 120.446 38 119.507 39.792C118.568 41.4987 117.8 43.5467 117.203 45.936C116.606 48.24 116.307 50.7147 116.307 53.36V79.856C116.307 81.648 116.776 82.9707 117.715 83.824C118.739 84.592 119.763 84.976 120.787 84.976C121.214 84.976 121.427 85.1893 121.427 85.616C121.427 86.0427 121.171 86.256 120.659 86.256H116.307H95.955H91.603C91.091 86.256 90.835 86.0427 90.835 85.616C90.835 85.1893 91.0057 84.976 91.347 84.976C92.4563 84.976 93.4803 84.592 94.419 83.824C95.443 82.9707 95.955 81.648 95.955 79.856V34.032C95.955 32.24 95.443 30.96 94.419 30.192C93.4803 29.3387 92.4563 28.912 91.347 28.912C91.0057 28.912 90.835 28.6987 90.835 28.272C90.835 27.8453 91.091 27.632 91.603 27.632H95.955H108.627C110.76 27.632 112.552 28.4 114.003 29.936C115.539 31.3867 116.307 33.1787 116.307 35.312V38.128C116.99 36.6773 117.843 35.2267 118.867 33.776C119.976 32.24 121.256 30.9173 122.707 29.808C124.243 28.6133 125.992 27.6747 127.955 26.992C129.918 26.224 132.136 25.84 134.611 25.84C136.83 25.84 138.792 26.096 140.499 26.608C142.206 27.12 143.656 27.8027 144.851 28.656C146.131 29.5093 147.155 30.448 147.923 31.472C148.776 32.496 149.459 33.5627 149.971 34.672C151.166 37.3173 151.806 40.2613 151.891 43.504V79.856C151.891 81.648 152.403 82.9707 153.427 83.824C154.451 84.592 155.475 84.976 156.499 84.976ZM216.869 28.912C215.76 28.912 214.693 29.3387 213.669 30.192C212.73 30.96 212.261 32.24 212.261 34.032V79.856C212.261 81.648 212.73 82.9707 213.669 83.824C214.693 84.592 215.76 84.976 216.869 84.976C217.21 84.976 217.381 85.1893 217.381 85.616C217.381 86.0427 217.168 86.256 216.741 86.256H212.261H199.717C198.01 86.256 196.474 85.7867 195.109 84.848C193.829 83.824 192.933 82.544 192.421 81.008C190.544 82.7147 188.581 84.0373 186.533 84.976C184.57 85.8293 182.693 86.256 180.901 86.256C177.232 86.256 173.861 85.744 170.789 84.72C167.717 83.6107 165.029 81.9893 162.725 79.856C160.506 77.7227 158.757 75.0347 157.477 71.792C156.282 68.464 155.685 64.5387 155.685 60.016C155.685 55.152 156.24 50.7147 157.349 46.704C158.544 42.6933 160.208 39.28 162.341 36.464C164.56 33.648 167.205 31.472 170.277 29.936C173.434 28.4 176.976 27.632 180.901 27.632C185.168 27.632 189.093 29.168 192.677 32.24C193.274 30.8747 194.17 29.7653 195.365 28.912C196.645 28.0587 198.096 27.632 199.717 27.632H212.261H216.741C217.168 27.632 217.381 27.8453 217.381 28.272C217.381 28.6987 217.21 28.912 216.869 28.912ZM184.101 81.52C185.552 81.52 186.789 80.88 187.813 79.6C188.837 78.2347 189.648 76.4427 190.245 74.224C190.928 71.92 191.397 69.2747 191.653 66.288C191.909 63.3013 192.037 60.1867 192.037 56.944C192.037 53.7013 191.952 50.5867 191.781 47.6C191.61 44.6133 191.226 42.0107 190.629 39.792C190.117 37.488 189.349 35.696 188.325 34.416C187.301 33.0507 185.893 32.368 184.101 32.368C182.736 32.368 181.498 33.0507 180.389 34.416C179.28 35.696 178.298 37.488 177.445 39.792C176.677 42.0107 176.08 44.6133 175.653 47.6C175.226 50.5867 175.013 53.7013 175.013 56.944C175.013 60.1867 175.226 63.3013 175.653 66.288C176.08 69.2747 176.677 71.92 177.445 74.224C178.298 76.4427 179.28 78.2347 180.389 79.6C181.498 80.88 182.736 81.52 184.101 81.52Z" fill="#F3F2EE"/>
<path d="M190.763 100.8C190.763 99.7867 190.923 98.86 191.243 98.02C191.577 97.1667 192.043 96.4333 192.643 95.82C193.243 95.2067 193.963 94.7267 194.803 94.38C195.657 94.0333 196.61 93.86 197.663 93.86C198.277 93.86 198.857 93.9267 199.403 94.06C199.95 94.18 200.423 94.36 200.823 94.6C201.237 94.8267 201.563 95.1067 201.803 95.44C202.043 95.76 202.163 96.12 202.163 96.52C202.163 97.0267 201.983 97.46 201.623 97.82C201.277 98.1667 200.817 98.34 200.243 98.34C200.15 98.34 200.037 98.3333 199.903 98.32C199.783 98.2933 199.663 98.26 199.543 98.22C199.423 98.18 199.323 98.1333 199.243 98.08C199.163 98.0133 199.123 97.94 199.123 97.86C199.123 97.82 199.157 97.7533 199.223 97.66C199.357 97.54 199.45 97.3733 199.503 97.16C199.57 96.9467 199.603 96.7533 199.603 96.58C199.603 96.1 199.463 95.6933 199.183 95.36C198.917 95.0267 198.463 94.86 197.823 94.86C197.423 94.86 197.017 95 196.603 95.28C196.203 95.56 195.843 95.9533 195.523 96.46C195.203 96.9667 194.937 97.58 194.723 98.3C194.523 99.0067 194.423 99.7867 194.423 100.64C194.423 101.267 194.477 101.9 194.583 102.54C194.703 103.167 194.89 103.733 195.143 104.24C195.41 104.747 195.757 105.16 196.183 105.48C196.61 105.787 197.137 105.94 197.763 105.94C198.337 105.94 198.803 105.827 199.163 105.6C199.537 105.373 199.83 105.113 200.043 104.82C200.27 104.527 200.43 104.253 200.523 104C200.63 103.733 200.703 103.56 200.743 103.48C200.797 103.373 200.877 103.32 200.983 103.32C201.103 103.32 201.25 103.4 201.423 103.56C201.597 103.72 201.683 103.967 201.683 104.3C201.683 104.607 201.61 104.92 201.463 105.24C201.317 105.56 201.077 105.853 200.743 106.12C200.423 106.387 200.003 106.607 199.483 106.78C198.977 106.953 198.357 107.04 197.623 107.04C196.61 107.04 195.683 106.907 194.843 106.64C194.003 106.373 193.277 105.98 192.663 105.46C192.063 104.94 191.597 104.293 191.263 103.52C190.93 102.733 190.763 101.827 190.763 100.8ZM208.79 97.6C209.017 97.6 209.237 97.6533 209.45 97.76C209.677 97.8667 209.877 98.0067 210.05 98.18C210.237 98.3533 210.384 98.5533 210.49 98.78C210.597 99.0067 210.65 99.2467 210.65 99.5C210.65 99.82 210.564 100.093 210.39 100.32C210.23 100.547 210.03 100.727 209.79 100.86C209.564 100.993 209.317 101.093 209.05 101.16C208.797 101.213 208.577 101.24 208.39 101.24C208.47 100.987 208.51 100.727 208.51 100.46C208.524 100.18 208.497 99.9267 208.43 99.7C208.364 99.46 208.257 99.2667 208.11 99.12C207.964 98.96 207.777 98.88 207.55 98.88C207.35 98.88 207.15 98.96 206.95 99.12C206.764 99.28 206.59 99.5 206.43 99.78C206.284 100.047 206.164 100.367 206.07 100.74C205.977 101.1 205.93 101.487 205.93 101.9V106.04C205.93 106.32 206.004 106.527 206.15 106.66C206.31 106.78 206.477 106.84 206.65 106.84C206.704 106.84 206.73 106.873 206.73 106.94C206.73 107.007 206.697 107.04 206.63 107.04H205.93H202.77H202.07C202.004 107.04 201.97 107.007 201.97 106.94C201.97 106.873 201.997 106.84 202.05 106.84C202.224 106.84 202.384 106.78 202.53 106.66C202.69 106.527 202.77 106.32 202.77 106.04V98.88C202.77 98.6 202.69 98.4 202.53 98.28C202.384 98.1467 202.224 98.08 202.05 98.08C201.997 98.08 201.97 98.0467 201.97 97.98C201.97 97.9133 202.004 97.88 202.07 97.88H202.77H204.75C205.07 97.88 205.344 98 205.57 98.24C205.81 98.4667 205.93 98.7467 205.93 99.08V99.52C206.05 99.2933 206.19 99.0667 206.35 98.84C206.524 98.6 206.724 98.3933 206.95 98.22C207.19 98.0333 207.457 97.8867 207.75 97.78C208.057 97.66 208.404 97.6 208.79 97.6ZM214.883 97.88C215.576 97.88 216.196 97.9867 216.743 98.2C217.303 98.4133 217.77 98.72 218.143 99.12C218.53 99.52 218.823 100.007 219.023 100.58C219.223 101.14 219.323 101.767 219.323 102.46C219.323 103.167 219.223 103.8 219.023 104.36C218.823 104.92 218.53 105.4 218.143 105.8C217.77 106.2 217.303 106.507 216.743 106.72C216.196 106.933 215.576 107.04 214.883 107.04C214.19 107.04 213.563 106.933 213.003 106.72C212.456 106.507 211.99 106.2 211.603 105.8C211.23 105.4 210.943 104.92 210.743 104.36C210.543 103.8 210.443 103.167 210.443 102.46C210.443 101.767 210.543 101.14 210.743 100.58C210.943 100.007 211.23 99.52 211.603 99.12C211.99 98.72 212.456 98.4133 213.003 98.2C213.563 97.9867 214.19 97.88 214.883 97.88ZM214.883 106.52C215.096 106.52 215.29 106.413 215.463 106.2C215.636 105.987 215.783 105.7 215.903 105.34C216.036 104.98 216.136 104.56 216.203 104.08C216.27 103.587 216.303 103.06 216.303 102.5C216.303 101.94 216.27 101.42 216.203 100.94C216.136 100.447 216.036 100.02 215.903 99.66C215.783 99.3 215.636 99.0133 215.463 98.8C215.29 98.5867 215.096 98.48 214.883 98.48C214.67 98.48 214.476 98.5867 214.303 98.8C214.13 99.0133 213.976 99.3 213.843 99.66C213.723 100.02 213.63 100.447 213.563 100.94C213.496 101.42 213.463 101.94 213.463 102.5C213.463 103.06 213.496 103.587 213.563 104.08C213.63 104.56 213.723 104.98 213.843 105.34C213.976 105.7 214.13 105.987 214.303 106.2C214.476 106.413 214.67 106.52 214.883 106.52ZM227.13 100.4C227.13 100.653 227.057 100.88 226.91 101.08C226.777 101.267 226.59 101.427 226.35 101.56C226.11 101.68 225.83 101.767 225.51 101.82C225.204 101.86 224.884 101.847 224.55 101.78C224.577 101.713 224.63 101.62 224.71 101.5C224.804 101.367 224.85 101.113 224.85 100.74C224.85 100.593 224.83 100.4 224.79 100.16C224.764 99.92 224.704 99.6867 224.61 99.46C224.517 99.2333 224.384 99.04 224.21 98.88C224.05 98.7067 223.837 98.62 223.57 98.62C223.357 98.62 223.164 98.7267 222.99 98.94C222.817 99.14 222.664 99.42 222.53 99.78C222.41 100.127 222.317 100.533 222.25 101C222.184 101.467 222.15 101.953 222.15 102.46C222.15 103.633 222.364 104.567 222.79 105.26C223.23 105.953 223.83 106.3 224.59 106.3C225.07 106.3 225.49 106.153 225.85 105.86C226.21 105.567 226.484 105.16 226.67 104.64C226.724 104.533 226.797 104.493 226.89 104.52C226.957 104.533 227.004 104.567 227.03 104.62C227.07 104.66 227.077 104.707 227.05 104.76C226.984 104.96 226.884 105.193 226.75 105.46C226.617 105.713 226.417 105.96 226.15 106.2C225.897 106.427 225.557 106.627 225.13 106.8C224.717 106.96 224.197 107.04 223.57 107.04C222.877 107.04 222.257 106.933 221.71 106.72C221.164 106.507 220.697 106.2 220.31 105.8C219.937 105.4 219.644 104.92 219.43 104.36C219.23 103.8 219.13 103.167 219.13 102.46C219.13 101.767 219.23 101.14 219.43 100.58C219.644 100.007 219.937 99.52 220.31 99.12C220.697 98.72 221.164 98.4133 221.71 98.2C222.257 97.9867 222.877 97.88 223.57 97.88C224.25 97.88 224.817 97.9733 225.27 98.16C225.724 98.3467 226.09 98.5733 226.37 98.84C226.65 99.1067 226.844 99.3867 226.95 99.68C227.07 99.96 227.13 100.2 227.13 100.4ZM237.199 106.84C237.252 106.84 237.279 106.873 237.279 106.94C237.279 107.007 237.246 107.04 237.179 107.04H236.479H234.519C234.186 107.04 233.899 106.927 233.659 106.7C233.432 106.46 233.319 106.173 233.319 105.84V100.36C233.319 100.267 233.312 100.147 233.299 100C233.299 99.8533 233.272 99.7133 233.219 99.58C233.166 99.4333 233.086 99.3133 232.979 99.22C232.872 99.1267 232.719 99.08 232.519 99.08C232.319 99.08 232.119 99.18 231.919 99.38C231.732 99.58 231.566 99.8267 231.419 100.12C231.272 100.413 231.152 100.72 231.059 101.04C230.966 101.36 230.919 101.647 230.919 101.9V106.04C230.919 106.32 230.992 106.527 231.139 106.66C231.299 106.78 231.459 106.84 231.619 106.84C231.686 106.84 231.719 106.873 231.719 106.94C231.719 107.007 231.679 107.04 231.599 107.04H230.919H230.779H227.739H227.059C226.979 107.04 226.939 107.007 226.939 106.94C226.939 106.873 226.966 106.84 227.019 106.84C227.192 106.84 227.352 106.78 227.499 106.66C227.659 106.527 227.739 106.32 227.739 106.04V95.26C227.739 94.98 227.659 94.78 227.499 94.66C227.352 94.5267 227.192 94.46 227.019 94.46C226.966 94.46 226.939 94.4267 226.939 94.36C226.939 94.2933 226.979 94.26 227.059 94.26H227.739C228.006 94.26 228.299 94.2333 228.619 94.18C228.939 94.1267 229.246 94.0733 229.539 94.02C229.832 93.9533 230.099 93.8933 230.339 93.84C230.592 93.7867 230.786 93.76 230.919 93.76V99.32C231.052 99.1067 231.206 98.9 231.379 98.7C231.552 98.4867 231.752 98.3 231.979 98.14C232.219 97.98 232.486 97.8533 232.779 97.76C233.086 97.6533 233.419 97.6 233.779 97.6C234.126 97.6 234.432 97.64 234.699 97.72C234.966 97.8 235.192 97.9067 235.379 98.04C235.579 98.1733 235.739 98.32 235.859 98.48C235.992 98.64 236.099 98.8067 236.179 98.98C236.366 99.3933 236.466 99.8533 236.479 100.36V106.04C236.479 106.32 236.559 106.527 236.719 106.66C236.879 106.78 237.039 106.84 237.199 106.84ZM245.192 101C245.192 101.613 245.012 102.107 244.652 102.48C244.292 102.84 243.852 103.12 243.332 103.32C242.812 103.52 242.265 103.653 241.692 103.72C241.119 103.787 240.625 103.827 240.212 103.84C240.359 104.613 240.632 105.22 241.032 105.66C241.432 106.087 241.932 106.3 242.532 106.3C242.999 106.3 243.405 106.16 243.752 105.88C244.112 105.587 244.392 105.187 244.592 104.68C244.645 104.56 244.732 104.527 244.852 104.58H244.872C244.965 104.62 244.999 104.7 244.972 104.82C244.905 105.02 244.799 105.247 244.652 105.5C244.519 105.753 244.319 105.993 244.052 106.22C243.799 106.447 243.465 106.64 243.052 106.8C242.639 106.96 242.125 107.04 241.512 107.04C240.819 107.04 240.192 106.933 239.632 106.72C239.085 106.507 238.619 106.2 238.232 105.8C237.859 105.4 237.572 104.92 237.372 104.36C237.172 103.8 237.072 103.167 237.072 102.46C237.072 101.767 237.172 101.14 237.372 100.58C237.572 100.007 237.859 99.52 238.232 99.12C238.619 98.72 239.085 98.4133 239.632 98.2C240.192 97.9867 240.819 97.88 241.512 97.88C242.085 97.88 242.599 97.9667 243.052 98.14C243.505 98.3133 243.892 98.5467 244.212 98.84C244.532 99.12 244.772 99.4467 244.932 99.82C245.105 100.193 245.192 100.587 245.192 101ZM240.112 103.1C241.005 103.06 241.672 102.847 242.112 102.46C242.552 102.06 242.772 101.58 242.772 101.02C242.772 100.74 242.752 100.46 242.712 100.18C242.672 99.9 242.605 99.6467 242.512 99.42C242.419 99.18 242.292 98.9867 242.132 98.84C241.972 98.6933 241.765 98.62 241.512 98.62C241.299 98.62 241.105 98.7267 240.932 98.94C240.759 99.14 240.605 99.42 240.472 99.78C240.352 100.127 240.259 100.533 240.192 101C240.125 101.467 240.092 101.953 240.092 102.46C240.092 102.567 240.092 102.673 240.092 102.78C240.092 102.887 240.099 102.993 240.112 103.1ZM250.238 106.14C250.571 106.14 250.831 106.047 251.018 105.86C251.204 105.673 251.304 105.413 251.318 105.08H251.598C251.544 105.347 251.458 105.6 251.338 105.84C251.231 106.08 251.078 106.293 250.878 106.48C250.691 106.653 250.458 106.793 250.178 106.9C249.898 106.993 249.564 107.04 249.178 107.04H248.778C248.391 107.04 248.031 106.967 247.698 106.82C247.364 106.673 247.071 106.48 246.818 106.24C246.578 105.987 246.384 105.693 246.238 105.36C246.091 105.013 246.018 104.647 246.018 104.26V98.58H245.358C245.251 98.58 245.164 98.5533 245.098 98.5C245.031 98.4333 244.998 98.3467 244.998 98.24C244.998 98.1333 245.031 98.0467 245.098 97.98C245.164 97.9133 245.251 97.88 245.358 97.88H246.018C246.244 97.88 246.511 97.7933 246.818 97.62C247.138 97.4333 247.438 97.2067 247.718 96.94C247.998 96.66 248.238 96.36 248.438 96.04C248.638 95.7067 248.738 95.4 248.738 95.12H249.178V97.88H250.638C250.744 97.88 250.831 97.9133 250.898 97.98C250.964 98.0467 250.998 98.1333 250.998 98.24C250.998 98.3467 250.964 98.4333 250.898 98.5C250.831 98.5533 250.744 98.58 250.638 98.58H249.178V105.08C249.191 105.413 249.291 105.673 249.478 105.86C249.664 106.047 249.918 106.14 250.238 106.14ZM249.178 107.02C249.204 107.02 249.224 107.013 249.238 107C249.251 107 249.231 107 249.178 107V107.02Z" fill="#AFC28A"/>
<path d="M238.137 57.6548L238.137 57.6547C238.461 57.2833 238.842 56.9929 239.256 56.7963C239.669 56.5998 240.109 56.5 240.552 56.5C240.994 56.5 241.435 56.5998 241.848 56.7963C242.262 56.9929 242.643 57.2833 242.966 57.6547L242.967 57.6549C243.291 58.0262 243.551 58.4707 243.729 58.9643C243.908 59.458 244 59.989 244 60.5266C244 61.0641 243.908 61.5951 243.729 62.0888C243.551 62.5824 243.291 63.0269 242.967 63.3983L242.967 63.3983L241.422 65.1687C240.194 64.2359 238.661 63.6818 237 63.6818C235.339 63.6818 233.806 64.2359 232.577 65.1689L231.033 63.3983C230.378 62.6469 230 61.6147 230 60.5266C230 59.4384 230.378 58.4062 231.033 57.6548C231.687 56.9055 232.557 56.5004 233.448 56.5004C234.338 56.5004 235.209 56.9055 235.862 57.6548L236.623 58.5269C236.718 58.6357 236.855 58.6982 237 58.6982C237.144 58.6982 237.282 58.6357 237.377 58.5269L238.137 57.6548ZM231.034 84.3453L231.033 84.3451C230.709 83.9738 230.449 83.5293 230.271 83.0357C230.092 82.542 230 82.011 230 81.4734C230 80.9359 230.092 80.4049 230.271 79.9112C230.449 79.4176 230.709 78.9731 231.033 78.6017L231.033 78.6016L232.578 76.8312C233.806 77.7641 235.339 78.3182 237 78.3182C238.661 78.3182 240.194 77.7641 241.423 76.8311L242.967 78.6017C242.967 78.6017 242.967 78.6017 242.967 78.6017C243.622 79.3531 244 80.3853 244 81.4734C244 82.5616 243.622 83.5938 242.967 84.3452C242.313 85.0945 241.443 85.4996 240.552 85.4996C239.662 85.4996 238.791 85.0945 238.138 84.3452L237.377 83.4731C237.282 83.3643 237.145 83.3018 237 83.3018C236.856 83.3018 236.718 83.3643 236.623 83.4731L235.863 84.3452L235.863 84.3453C235.539 84.7167 235.158 85.0071 234.744 85.2037C234.331 85.4002 233.891 85.5 233.448 85.5C233.006 85.5 232.565 85.4002 232.152 85.2037C231.738 85.0071 231.357 84.7167 231.034 84.3453ZM231.169 66.5776C230.236 67.8059 229.682 69.3388 229.682 71C229.682 72.6613 230.236 74.1942 231.169 75.4226L229.398 76.9669C229.398 76.9669 229.398 76.9669 229.398 76.9669C228.647 77.6224 227.615 78 226.527 78C225.438 78 224.406 77.6223 223.655 76.9669C222.905 76.3134 222.5 75.4429 222.5 74.5523C222.5 73.6617 222.905 72.7912 223.655 72.1377L224.527 71.377C224.636 71.282 224.698 71.1446 224.698 71.0002C224.698 70.8557 224.636 70.7183 224.527 70.6234L223.655 69.8627L223.655 69.8627C223.283 69.5388 222.993 69.1581 222.796 68.7443C222.6 68.3308 222.5 67.8906 222.5 67.4481C222.5 67.0056 222.6 66.5653 222.796 66.1518C222.993 65.7381 223.283 65.3573 223.655 65.0335L223.655 65.0334C224.026 64.7093 224.471 64.4492 224.964 64.2708C225.458 64.0924 225.989 64 226.527 64C227.064 64 227.595 64.0924 228.089 64.2708C228.582 64.4492 229.027 64.7093 229.398 65.0334L229.398 65.0334L231.169 66.5776ZM244.602 76.9665L242.831 75.4225C243.764 74.1941 244.318 72.6613 244.318 71C244.318 69.3387 243.764 67.8057 242.831 66.5774L244.602 65.0331C245.353 64.3777 246.385 64 247.473 64C248.562 64 249.594 64.3777 250.345 65.0331C251.095 65.6866 251.5 66.5571 251.5 67.4477C251.5 68.3383 251.095 69.2088 250.345 69.8623L249.473 70.623C249.364 70.718 249.302 70.8553 249.302 70.9998C249.302 71.1443 249.364 71.2817 249.473 71.3766L250.345 72.1373L250.345 72.1373C250.717 72.4612 251.007 72.8419 251.204 73.2557C251.4 73.6692 251.5 74.1094 251.5 74.5519C251.5 74.9944 251.4 75.4347 251.204 75.8482C251.007 76.2619 250.717 76.6427 250.345 76.9665L250.345 76.9666C249.974 77.2907 249.529 77.5508 249.036 77.7292C248.542 77.9076 248.011 78 247.473 78C246.936 78 246.405 77.9076 245.911 77.7292C245.418 77.5508 244.973 77.2907 244.602 76.9666L244.602 76.9665Z" fill="#AFC28A" stroke="#F4DADB" stroke-linecap="round" stroke-linejoin="round"/>
<circle cx="237" cy="71" r="2.90909" fill="#F3F2EE" stroke="#F4DADB"/>
</svg>
