<svg width="21" height="21" viewBox="0 0 21 21" fill="none" xmlns="http://www.w3.org/2000/svg">
<path d="M8.95455 18.1905C8.95455 18.6376 8.60858 19 8.18182 19C7.75505 19 7.40909 18.6376 7.40909 18.1905C7.40909 17.7434 7.75505 17.381 8.18182 17.381C8.60858 17.381 8.95455 17.7434 8.95455 18.1905Z" fill="#CE4563"/>
<path d="M17.4545 18.1905C17.4545 18.6376 17.1086 19 16.6818 19C16.2551 19 15.9091 18.6376 15.9091 18.1905C15.9091 17.7434 16.2551 17.381 16.6818 17.381C17.1086 17.381 17.4545 17.7434 17.4545 18.1905Z" fill="#CE4563"/>
<path d="M2 2H5.09091L7.16182 12.8395C7.23248 13.2122 7.42602 13.547 7.70856 13.7853C7.9911 14.0236 8.34463 14.1501 8.70727 14.1429H16.2182C16.5808 14.1501 16.9344 14.0236 17.2169 13.7853C17.4994 13.547 17.693 13.2122 17.7636 12.8395L19 6.04762H5.86364M8.95455 18.1905C8.95455 18.6376 8.60858 19 8.18182 19C7.75505 19 7.40909 18.6376 7.40909 18.1905C7.40909 17.7434 7.75505 17.381 8.18182 17.381C8.60858 17.381 8.95455 17.7434 8.95455 18.1905ZM17.4545 18.1905C17.4545 18.6376 17.1086 19 16.6818 19C16.2551 19 15.9091 18.6376 15.9091 18.1905C15.9091 17.7434 16.2551 17.381 16.6818 17.381C17.1086 17.381 17.4545 17.7434 17.4545 18.1905Z" stroke="#CE4563" stroke-width="3" stroke-linecap="round" stroke-linejoin="round"/>
</svg>
