<svg width="21" height="15" viewBox="0 0 21 15" fill="none" xmlns="http://www.w3.org/2000/svg">
<path d="M0 1.5C0 0.671573 0.671573 0 1.5 0H8.5C9.32843 0 10 0.671573 10 1.5C10 2.32843 9.32843 3 8.5 3H1.5C0.671573 3 0 2.32843 0 1.5Z" fill="#CE4563"/>
<path d="M0 7.5C0 6.67157 0.671573 6 1.5 6H19.5C20.3284 6 21 6.67157 21 7.5C21 8.32843 20.3284 9 19.5 9H1.5C0.671573 9 0 8.32843 0 7.5Z" fill="#CE4563"/>
<path d="M0 13.5C0 12.6716 0.671573 12 1.5 12H12.5C13.3284 12 14 12.6716 14 13.5C14 14.3284 13.3284 15 12.5 15H1.5C0.671573 15 0 14.3284 0 13.5Z" fill="#CE4563"/>
</svg>
