<svg width="44" height="19" viewBox="0 0 44 19" fill="none" xmlns="http://www.w3.org/2000/svg">
<path d="M32.8918 5.59379L32.8919 5.59397C32.9226 5.62915 32.95 5.67449 32.9696 5.72882C32.9893 5.78317 33 5.84331 33 5.90531C33 5.96731 32.9893 6.02746 32.9696 6.0818C32.95 6.13613 32.9226 6.18147 32.8919 6.21666L32.8919 6.21675L32.8034 6.31811C32.5601 6.20168 32.2874 6.13636 32 6.13636C31.7125 6.13636 31.4399 6.20169 31.1965 6.31814L31.1081 6.21675C31.0449 6.14435 31 6.03318 31 5.90531C31 5.77744 31.0449 5.66627 31.1081 5.59388C31.1693 5.52366 31.2365 5.50009 31.2895 5.50009C31.3426 5.50009 31.4098 5.52366 31.471 5.59388L31.6232 5.7683C31.7181 5.87716 31.8555 5.93964 32 5.93964C32.1444 5.93964 32.2818 5.87716 32.3768 5.7683L32.5289 5.59388L32.529 5.59379C32.5596 5.5587 32.5922 5.5351 32.6228 5.52056C32.6531 5.50615 32.6826 5.5 32.7104 5.5C32.7381 5.5 32.7677 5.50615 32.798 5.52056C32.8286 5.5351 32.8612 5.5587 32.8918 5.59379ZM30.2167 7.10814L30.3181 7.19655C30.2017 7.43993 30.1364 7.71257 30.1364 8C30.1364 8.28745 30.2017 8.56011 30.3181 8.8035L30.2167 8.89194C30.2167 8.89194 30.2167 8.89195 30.2167 8.89195C30.1443 8.95509 30.0332 9 29.9053 9C29.7774 9 29.6663 8.95508 29.5939 8.89194L29.3187 9.20741L29.5939 8.89194C29.5237 8.83069 29.5001 8.76347 29.5001 8.71046C29.5001 8.65745 29.5237 8.59023 29.5939 8.52898L29.7683 8.37685C29.8772 8.28189 29.9396 8.1445 29.9396 8.00004C29.9396 7.85558 29.8772 7.71818 29.7683 7.62323L29.5939 7.4711L29.5938 7.47102C29.5587 7.44043 29.5351 7.40784 29.5206 7.37723C29.5062 7.3469 29.5 7.31736 29.5 7.28962C29.5 7.26187 29.5062 7.23234 29.5206 7.20201C29.5351 7.17139 29.5587 7.1388 29.5938 7.10821L29.594 7.10806C29.6292 7.07736 29.6745 7.04999 29.7288 7.03036C29.7832 7.01072 29.8433 7 29.9053 7C29.9673 7 30.0275 7.01072 30.0818 7.03036C30.1361 7.04999 30.1815 7.07736 30.2167 7.10806L30.2167 7.10814ZM31.1081 9.78324L31.1965 9.68189C31.4399 9.79832 31.7126 9.86364 32 9.86364C32.2874 9.86364 32.5601 9.79831 32.8035 9.68186L32.8919 9.78326C32.8919 9.78326 32.8919 9.78326 32.8919 9.78327C32.9551 9.85566 33 9.96682 33 10.0947C33 10.2226 32.9551 10.3337 32.8919 10.4061L33.2687 10.7348L32.8919 10.4061C32.8307 10.4763 32.7635 10.4999 32.7105 10.4999C32.6574 10.4999 32.5902 10.4763 32.529 10.4061L32.1761 10.7139L32.529 10.4061L32.3768 10.2317C32.2819 10.1228 32.1445 10.0604 32 10.0604C31.8556 10.0604 31.7182 10.1228 31.6232 10.2317L31.4711 10.4061L31.471 10.4062C31.4404 10.4413 31.4078 10.4649 31.3772 10.4794C31.3469 10.4938 31.3174 10.5 31.2896 10.5C31.2619 10.5 31.2323 10.4938 31.202 10.4794C31.1714 10.4649 31.1388 10.4413 31.1082 10.4062L31.1081 10.406C31.0774 10.3708 31.05 10.3255 31.0304 10.2712C31.0107 10.2168 31 10.1567 31 10.0947C31 10.0327 31.0107 9.97254 31.0304 9.9182C31.05 9.86387 31.0774 9.81853 31.1081 9.78334L31.1081 9.78324ZM33.7832 8.89185L33.6819 8.80345C33.7983 8.56007 33.8636 8.28743 33.8636 8C33.8636 7.71255 33.7983 7.43989 33.6819 7.1965L33.7833 7.10806C33.8556 7.04492 33.9668 7 34.0947 7C34.2226 7 34.3337 7.04492 34.4061 7.10806C34.4763 7.16931 34.4999 7.23653 34.4999 7.28954C34.4999 7.34255 34.4763 7.40977 34.4061 7.47102L34.2317 7.62315C34.1228 7.7181 34.0604 7.8555 34.0604 7.99996C34.0604 8.14442 34.1228 8.28182 34.2317 8.37677L34.4061 8.5289L34.4062 8.52898C34.4413 8.55957 34.4649 8.59216 34.4794 8.62277C34.4938 8.6531 34.5 8.68264 34.5 8.71038C34.5 8.73813 34.4938 8.76766 34.4794 8.79799C34.4649 8.82861 34.4413 8.86119 34.4062 8.89179L34.406 8.89194C34.3708 8.92264 34.3255 8.95001 34.2712 8.96964C34.2168 8.98928 34.1567 9 34.0947 9C34.0327 9 33.9725 8.98928 33.9182 8.96964C33.8639 8.95001 33.8185 8.92264 33.7833 8.89194L33.7832 8.89185Z" fill="#AFC28A" stroke="#AFC28A" stroke-linecap="round" stroke-linejoin="round"/>
<circle cx="32" cy="7.99999" r="0.5" fill="#F3F2EE" stroke="#AFC28A" stroke-width="0.363636"/>
<path d="M13.3816 14.9C13.3816 14.3933 13.4616 13.93 13.6216 13.51C13.7883 13.0833 14.0216 12.7167 14.3216 12.41C14.6216 12.1033 14.9816 11.8633 15.4016 11.69C15.8283 11.5167 16.305 11.43 16.8316 11.43C17.1383 11.43 17.4283 11.4633 17.7016 11.53C17.975 11.59 18.2116 11.68 18.4116 11.8C18.6183 11.9133 18.7816 12.0533 18.9016 12.22C19.0216 12.38 19.0816 12.56 19.0816 12.76C19.0816 13.0133 18.9916 13.23 18.8116 13.41C18.6383 13.5833 18.4083 13.67 18.1216 13.67C18.075 13.67 18.0183 13.6667 17.9516 13.66C17.8916 13.6467 17.8316 13.63 17.7716 13.61C17.7116 13.59 17.6616 13.5667 17.6216 13.54C17.5816 13.5067 17.5616 13.47 17.5616 13.43C17.5616 13.41 17.5783 13.3767 17.6116 13.33C17.6783 13.27 17.725 13.1867 17.7516 13.08C17.785 12.9733 17.8016 12.8767 17.8016 12.79C17.8016 12.55 17.7316 12.3467 17.5916 12.18C17.4583 12.0133 17.2316 11.93 16.9116 11.93C16.7116 11.93 16.5083 12 16.3016 12.14C16.1016 12.28 15.9216 12.4767 15.7616 12.73C15.6016 12.9833 15.4683 13.29 15.3616 13.65C15.2616 14.0033 15.2116 14.3933 15.2116 14.82C15.2116 15.1333 15.2383 15.45 15.2916 15.77C15.3516 16.0833 15.445 16.3667 15.5716 16.62C15.705 16.8733 15.8783 17.08 16.0916 17.24C16.305 17.3933 16.5683 17.47 16.8816 17.47C17.1683 17.47 17.4016 17.4133 17.5816 17.3C17.7683 17.1867 17.915 17.0567 18.0216 16.91C18.135 16.7633 18.215 16.6267 18.2616 16.5C18.315 16.3667 18.3516 16.28 18.3716 16.24C18.3983 16.1867 18.4383 16.16 18.4916 16.16C18.5516 16.16 18.625 16.2 18.7116 16.28C18.7983 16.36 18.8416 16.4833 18.8416 16.65C18.8416 16.8033 18.805 16.96 18.7316 17.12C18.6583 17.28 18.5383 17.4267 18.3716 17.56C18.2116 17.6933 18.0016 17.8033 17.7416 17.89C17.4883 17.9767 17.1783 18.02 16.8116 18.02C16.305 18.02 15.8416 17.9533 15.4216 17.82C15.0016 17.6867 14.6383 17.49 14.3316 17.23C14.0316 16.97 13.7983 16.6467 13.6316 16.26C13.465 15.8667 13.3816 15.4133 13.3816 14.9ZM22.3952 13.3C22.5085 13.3 22.6185 13.3267 22.7252 13.38C22.8385 13.4333 22.9385 13.5033 23.0252 13.59C23.1185 13.6767 23.1918 13.7767 23.2452 13.89C23.2985 14.0033 23.3252 14.1233 23.3252 14.25C23.3252 14.41 23.2818 14.5467 23.1952 14.66C23.1152 14.7733 23.0152 14.8633 22.8952 14.93C22.7818 14.9967 22.6585 15.0467 22.5252 15.08C22.3985 15.1067 22.2885 15.12 22.1952 15.12C22.2352 14.9933 22.2552 14.8633 22.2552 14.73C22.2618 14.59 22.2485 14.4633 22.2152 14.35C22.1818 14.23 22.1285 14.1333 22.0552 14.06C21.9818 13.98 21.8885 13.94 21.7752 13.94C21.6752 13.94 21.5752 13.98 21.4752 14.06C21.3818 14.14 21.2952 14.25 21.2152 14.39C21.1418 14.5233 21.0818 14.6833 21.0352 14.87C20.9885 15.05 20.9652 15.2433 20.9652 15.45V17.52C20.9652 17.66 21.0018 17.7633 21.0752 17.83C21.1552 17.89 21.2385 17.92 21.3252 17.92C21.3518 17.92 21.3652 17.9367 21.3652 17.97C21.3652 18.0033 21.3485 18.02 21.3152 18.02H20.9652H19.3852H19.0352C19.0018 18.02 18.9852 18.0033 18.9852 17.97C18.9852 17.9367 18.9985 17.92 19.0252 17.92C19.1118 17.92 19.1918 17.89 19.2652 17.83C19.3452 17.7633 19.3852 17.66 19.3852 17.52V13.94C19.3852 13.8 19.3452 13.7 19.2652 13.64C19.1918 13.5733 19.1118 13.54 19.0252 13.54C18.9985 13.54 18.9852 13.5233 18.9852 13.49C18.9852 13.4567 19.0018 13.44 19.0352 13.44H19.3852H20.3752C20.5352 13.44 20.6718 13.5 20.7852 13.62C20.9052 13.7333 20.9652 13.8733 20.9652 14.04V14.26C21.0252 14.1467 21.0952 14.0333 21.1752 13.92C21.2618 13.8 21.3618 13.6967 21.4752 13.61C21.5952 13.5167 21.7285 13.4433 21.8752 13.39C22.0285 13.33 22.2018 13.3 22.3952 13.3ZM25.4415 13.44C25.7882 13.44 26.0982 13.4933 26.3715 13.6C26.6515 13.7067 26.8848 13.86 27.0715 14.06C27.2648 14.26 27.4115 14.5033 27.5115 14.79C27.6115 15.07 27.6615 15.3833 27.6615 15.73C27.6615 16.0833 27.6115 16.4 27.5115 16.68C27.4115 16.96 27.2648 17.2 27.0715 17.4C26.8848 17.6 26.6515 17.7533 26.3715 17.86C26.0982 17.9667 25.7882 18.02 25.4415 18.02C25.0948 18.02 24.7815 17.9667 24.5015 17.86C24.2282 17.7533 23.9948 17.6 23.8015 17.4C23.6148 17.2 23.4715 16.96 23.3715 16.68C23.2715 16.4 23.2215 16.0833 23.2215 15.73C23.2215 15.3833 23.2715 15.07 23.3715 14.79C23.4715 14.5033 23.6148 14.26 23.8015 14.06C23.9948 13.86 24.2282 13.7067 24.5015 13.6C24.7815 13.4933 25.0948 13.44 25.4415 13.44ZM25.4415 17.76C25.5482 17.76 25.6448 17.7067 25.7315 17.6C25.8182 17.4933 25.8915 17.35 25.9515 17.17C26.0182 16.99 26.0682 16.78 26.1015 16.54C26.1348 16.2933 26.1515 16.03 26.1515 15.75C26.1515 15.47 26.1348 15.21 26.1015 14.97C26.0682 14.7233 26.0182 14.51 25.9515 14.33C25.8915 14.15 25.8182 14.0067 25.7315 13.9C25.6448 13.7933 25.5482 13.74 25.4415 13.74C25.3348 13.74 25.2382 13.7933 25.1515 13.9C25.0648 14.0067 24.9882 14.15 24.9215 14.33C24.8615 14.51 24.8148 14.7233 24.7815 14.97C24.7482 15.21 24.7315 15.47 24.7315 15.75C24.7315 16.03 24.7482 16.2933 24.7815 16.54C24.8148 16.78 24.8615 16.99 24.9215 17.17C24.9882 17.35 25.0648 17.4933 25.1515 17.6C25.2382 17.7067 25.3348 17.76 25.4415 17.76ZM31.5652 14.7C31.5652 14.8267 31.5286 14.94 31.4552 15.04C31.3886 15.1333 31.2952 15.2133 31.1752 15.28C31.0552 15.34 30.9152 15.3833 30.7552 15.41C30.6019 15.43 30.4419 15.4233 30.2752 15.39C30.2886 15.3567 30.3152 15.31 30.3552 15.25C30.4019 15.1833 30.4252 15.0567 30.4252 14.87C30.4252 14.7967 30.4152 14.7 30.3952 14.58C30.3819 14.46 30.3519 14.3433 30.3052 14.23C30.2586 14.1167 30.1919 14.02 30.1052 13.94C30.0252 13.8533 29.9186 13.81 29.7852 13.81C29.6786 13.81 29.5819 13.8633 29.4952 13.97C29.4086 14.07 29.3319 14.21 29.2652 14.39C29.2052 14.5633 29.1586 14.7667 29.1252 15C29.0919 15.2333 29.0752 15.4767 29.0752 15.73C29.0752 16.3167 29.1819 16.7833 29.3952 17.13C29.6152 17.4767 29.9152 17.65 30.2952 17.65C30.5352 17.65 30.7452 17.5767 30.9252 17.43C31.1052 17.2833 31.2419 17.08 31.3352 16.82C31.3619 16.7667 31.3986 16.7467 31.4452 16.76C31.4786 16.7667 31.5019 16.7833 31.5152 16.81C31.5352 16.83 31.5386 16.8533 31.5252 16.88C31.4919 16.98 31.4419 17.0967 31.3752 17.23C31.3086 17.3567 31.2086 17.48 31.0752 17.6C30.9486 17.7133 30.7786 17.8133 30.5652 17.9C30.3586 17.98 30.0986 18.02 29.7852 18.02C29.4386 18.02 29.1286 17.9667 28.8552 17.86C28.5819 17.7533 28.3486 17.6 28.1552 17.4C27.9686 17.2 27.8219 16.96 27.7152 16.68C27.6152 16.4 27.5652 16.0833 27.5652 15.73C27.5652 15.3833 27.6152 15.07 27.7152 14.79C27.8219 14.5033 27.9686 14.26 28.1552 14.06C28.3486 13.86 28.5819 13.7067 28.8552 13.6C29.1286 13.4933 29.4386 13.44 29.7852 13.44C30.1252 13.44 30.4086 13.4867 30.6352 13.58C30.8619 13.6733 31.0452 13.7867 31.1852 13.92C31.3252 14.0533 31.4219 14.1933 31.4752 14.34C31.5352 14.48 31.5652 14.6 31.5652 14.7ZM36.5995 17.92C36.6262 17.92 36.6395 17.9367 36.6395 17.97C36.6395 18.0033 36.6229 18.02 36.5895 18.02H36.2395H35.2595C35.0929 18.02 34.9495 17.9633 34.8295 17.85C34.7162 17.73 34.6595 17.5867 34.6595 17.42V14.68C34.6595 14.6333 34.6562 14.5733 34.6495 14.5C34.6495 14.4267 34.6362 14.3567 34.6095 14.29C34.5829 14.2167 34.5429 14.1567 34.4895 14.11C34.4362 14.0633 34.3595 14.04 34.2595 14.04C34.1595 14.04 34.0595 14.09 33.9595 14.19C33.8662 14.29 33.7829 14.4133 33.7095 14.56C33.6362 14.7067 33.5762 14.86 33.5295 15.02C33.4829 15.18 33.4595 15.3233 33.4595 15.45V17.52C33.4595 17.66 33.4962 17.7633 33.5695 17.83C33.6495 17.89 33.7295 17.92 33.8095 17.92C33.8429 17.92 33.8595 17.9367 33.8595 17.97C33.8595 18.0033 33.8395 18.02 33.7995 18.02H33.4595H33.3895H31.8695H31.5295C31.4895 18.02 31.4695 18.0033 31.4695 17.97C31.4695 17.9367 31.4829 17.92 31.5095 17.92C31.5962 17.92 31.6762 17.89 31.7495 17.83C31.8295 17.7633 31.8695 17.66 31.8695 17.52V12.13C31.8695 11.99 31.8295 11.89 31.7495 11.83C31.6762 11.7633 31.5962 11.73 31.5095 11.73C31.4829 11.73 31.4695 11.7133 31.4695 11.68C31.4695 11.6467 31.4895 11.63 31.5295 11.63H31.8695C32.0029 11.63 32.1495 11.6167 32.3095 11.59C32.4695 11.5633 32.6229 11.5367 32.7695 11.51C32.9162 11.4767 33.0495 11.4467 33.1695 11.42C33.2962 11.3933 33.3929 11.38 33.4595 11.38V14.16C33.5262 14.0533 33.6029 13.95 33.6895 13.85C33.7762 13.7433 33.8762 13.65 33.9895 13.57C34.1095 13.49 34.2429 13.4267 34.3895 13.38C34.5429 13.3267 34.7095 13.3 34.8895 13.3C35.0629 13.3 35.2162 13.32 35.3495 13.36C35.4829 13.4 35.5962 13.4533 35.6895 13.52C35.7895 13.5867 35.8695 13.66 35.9295 13.74C35.9962 13.82 36.0495 13.9033 36.0895 13.99C36.1829 14.1967 36.2329 14.4267 36.2395 14.68V17.52C36.2395 17.66 36.2795 17.7633 36.3595 17.83C36.4395 17.89 36.5195 17.92 36.5995 17.92ZM40.5959 15C40.5959 15.3067 40.5059 15.5533 40.3259 15.74C40.1459 15.92 39.9259 16.06 39.6659 16.16C39.4059 16.26 39.1326 16.3267 38.8459 16.36C38.5593 16.3933 38.3126 16.4133 38.1059 16.42C38.1793 16.8067 38.3159 17.11 38.5159 17.33C38.7159 17.5433 38.9659 17.65 39.2659 17.65C39.4993 17.65 39.7026 17.58 39.8759 17.44C40.0559 17.2933 40.1959 17.0933 40.2959 16.84C40.3226 16.78 40.3659 16.7633 40.4259 16.79H40.4359C40.4826 16.81 40.4993 16.85 40.4859 16.91C40.4526 17.01 40.3993 17.1233 40.3259 17.25C40.2593 17.3767 40.1593 17.4967 40.0259 17.61C39.8993 17.7233 39.7326 17.82 39.5259 17.9C39.3193 17.98 39.0626 18.02 38.7559 18.02C38.4093 18.02 38.0959 17.9667 37.8159 17.86C37.5426 17.7533 37.3093 17.6 37.1159 17.4C36.9293 17.2 36.7859 16.96 36.6859 16.68C36.5859 16.4 36.5359 16.0833 36.5359 15.73C36.5359 15.3833 36.5859 15.07 36.6859 14.79C36.7859 14.5033 36.9293 14.26 37.1159 14.06C37.3093 13.86 37.5426 13.7067 37.8159 13.6C38.0959 13.4933 38.4093 13.44 38.7559 13.44C39.0426 13.44 39.2993 13.4833 39.5259 13.57C39.7526 13.6567 39.9459 13.7733 40.1059 13.92C40.2659 14.06 40.3859 14.2233 40.4659 14.41C40.5526 14.5967 40.5959 14.7933 40.5959 15ZM38.0559 16.05C38.5026 16.03 38.8359 15.9233 39.0559 15.73C39.2759 15.53 39.3859 15.29 39.3859 15.01C39.3859 14.87 39.3759 14.73 39.3559 14.59C39.3359 14.45 39.3026 14.3233 39.2559 14.21C39.2093 14.09 39.1459 13.9933 39.0659 13.92C38.9859 13.8467 38.8826 13.81 38.7559 13.81C38.6493 13.81 38.5526 13.8633 38.4659 13.97C38.3793 14.07 38.3026 14.21 38.2359 14.39C38.1759 14.5633 38.1293 14.7667 38.0959 15C38.0626 15.2333 38.0459 15.4767 38.0459 15.73C38.0459 15.7833 38.0459 15.8367 38.0459 15.89C38.0459 15.9433 38.0493 15.9967 38.0559 16.05ZM43.1188 17.57C43.2855 17.57 43.4155 17.5233 43.5088 17.43C43.6022 17.3367 43.6522 17.2067 43.6588 17.04H43.7988C43.7722 17.1733 43.7288 17.3 43.6688 17.42C43.6155 17.54 43.5388 17.6467 43.4388 17.74C43.3455 17.8267 43.2288 17.8967 43.0888 17.95C42.9488 17.9967 42.7822 18.02 42.5888 18.02H42.3888C42.1955 18.02 42.0155 17.9833 41.8488 17.91C41.6822 17.8367 41.5355 17.74 41.4088 17.62C41.2888 17.4933 41.1922 17.3467 41.1188 17.18C41.0455 17.0067 41.0088 16.8233 41.0088 16.63V13.79H40.6788C40.6255 13.79 40.5822 13.7767 40.5488 13.75C40.5155 13.7167 40.4988 13.6733 40.4988 13.62C40.4988 13.5667 40.5155 13.5233 40.5488 13.49C40.5822 13.4567 40.6255 13.44 40.6788 13.44H41.0088C41.1222 13.44 41.2555 13.3967 41.4088 13.31C41.5688 13.2167 41.7188 13.1033 41.8588 12.97C41.9988 12.83 42.1188 12.68 42.2188 12.52C42.3188 12.3533 42.3688 12.2 42.3688 12.06H42.5888V13.44H43.3188C43.3722 13.44 43.4155 13.4567 43.4488 13.49C43.4822 13.5233 43.4988 13.5667 43.4988 13.62C43.4988 13.6733 43.4822 13.7167 43.4488 13.75C43.4155 13.7767 43.3722 13.79 43.3188 13.79H42.5888V17.04C42.5955 17.2067 42.6455 17.3367 42.7388 17.43C42.8322 17.5233 42.9588 17.57 43.1188 17.57ZM42.5888 18.01C42.6022 18.01 42.6122 18.0067 42.6188 18C42.6255 18 42.6155 18 42.5888 18V18.01Z" fill="#AFC28A"/>
<path d="M12.9131 10.856C12.9771 10.856 13.0091 10.8827 13.0091 10.936C13.0091 11 12.9771 11.032 12.9131 11.032H12.3851L12.3691 10.968L12.3851 11.032H9.36113H8.76913C8.70513 11.032 8.67313 11 8.67313 10.936C8.67313 10.8827 8.70513 10.856 8.76913 10.856C8.88646 10.856 8.99313 10.808 9.08913 10.712C9.18513 10.616 9.20113 10.456 9.13713 10.232L9.36113 11.016L8.36913 7.432H5.39313L4.40113 11.016L4.62513 10.232C4.56113 10.456 4.57713 10.616 4.67313 10.712C4.76913 10.808 4.87579 10.856 4.99313 10.856C5.05713 10.856 5.08913 10.8827 5.08913 10.936C5.08913 11 5.05713 11.032 4.99313 11.032H4.40113H3.85713L3.87313 10.984L3.85713 11.032H3.32913C3.27579 11.032 3.24913 11 3.24913 10.936C3.24913 10.8827 3.27579 10.856 3.32913 10.856C3.46779 10.856 3.61179 10.808 3.76113 10.712C3.91046 10.616 4.01713 10.456 4.08113 10.232L6.56113 1.24C6.58246 1.15467 6.59313 1.096 6.59313 1.064H5.61713C5.40379 1.064 5.16913 1.08533 4.91313 1.128C4.65713 1.16 4.41713 1.22933 4.19313 1.336C3.97979 1.44267 3.79846 1.59733 3.64913 1.8C3.49979 1.992 3.42513 2.248 3.42513 2.568C3.42513 2.86667 3.52646 3.12267 3.72913 3.336C3.93179 3.53867 4.18779 3.64 4.49713 3.64C4.49713 3.672 4.48113 3.73067 4.44913 3.816C4.41713 3.89067 4.36379 3.97067 4.28913 4.056C4.22513 4.13067 4.12913 4.2 4.00113 4.264C3.88379 4.328 3.72913 4.36 3.53713 4.36C3.33446 4.36 3.13179 4.328 2.92913 4.264C2.73713 4.18933 2.56113 4.088 2.40113 3.96C2.24113 3.832 2.11313 3.67733 2.01713 3.496C1.92113 3.31467 1.87313 3.10667 1.87313 2.872C1.87313 2.424 1.97446 2.05067 2.17713 1.752C2.39046 1.44267 2.66246 1.19733 2.99313 1.016C3.32379 0.824 3.69179 0.685333 4.09713 0.599999C4.51313 0.514666 4.91846 0.471999 5.31313 0.471999H6.11313H6.44913H6.76913H8.01713H9.47313H10.1291C10.1825 0.471999 10.2091 0.503999 10.2091 0.568C10.2091 0.621333 10.1825 0.648 10.1291 0.648C9.99046 0.648 9.86779 0.696 9.76113 0.792C9.65446 0.877333 9.62779 1.02667 9.68113 1.24L12.1611 10.232C12.2251 10.456 12.3318 10.616 12.4811 10.712C12.6305 10.808 12.7745 10.856 12.9131 10.856ZM8.19313 6.84L6.88113 2.072L5.56913 6.84H8.19313ZM21.0624 10.872C21.105 10.872 21.1264 10.8987 21.1264 10.952C21.1264 11.0053 21.0997 11.032 21.0464 11.032H20.4864H17.9584H17.4144C17.3504 11.032 17.3184 11.0053 17.3184 10.952C17.3184 10.8987 17.3397 10.872 17.3824 10.872C17.521 10.872 17.649 10.824 17.7664 10.728C17.8944 10.6213 17.9584 10.456 17.9584 10.232V5.688C17.9584 5.61333 17.953 5.512 17.9424 5.384C17.9424 5.24533 17.921 5.112 17.8784 4.984C17.8357 4.856 17.7717 4.744 17.6864 4.648C17.601 4.552 17.4784 4.504 17.3184 4.504C17.1584 4.504 16.9984 4.568 16.8384 4.696C16.689 4.824 16.5557 5 16.4384 5.224C16.321 5.43733 16.225 5.69333 16.1504 5.992C16.0757 6.28 16.0384 6.58933 16.0384 6.92V10.232C16.0384 10.456 16.097 10.6213 16.2144 10.728C16.3424 10.824 16.4704 10.872 16.5984 10.872C16.6517 10.872 16.6784 10.8987 16.6784 10.952C16.6784 11.0053 16.6464 11.032 16.5824 11.032H16.0384H13.4944H12.9504C12.8864 11.032 12.8544 11.0053 12.8544 10.952C12.8544 10.8987 12.8757 10.872 12.9184 10.872C13.057 10.872 13.185 10.824 13.3024 10.728C13.4304 10.6213 13.4944 10.456 13.4944 10.232V4.504C13.4944 4.28 13.4304 4.12 13.3024 4.024C13.185 3.91733 13.057 3.864 12.9184 3.864C12.8757 3.864 12.8544 3.83733 12.8544 3.784C12.8544 3.73067 12.8864 3.704 12.9504 3.704H13.4944H15.0784C15.345 3.704 15.569 3.8 15.7504 3.992C15.9424 4.17333 16.0384 4.39733 16.0384 4.664V5.016C16.1237 4.83467 16.2304 4.65333 16.3584 4.472C16.497 4.28 16.657 4.11467 16.8384 3.976C17.0304 3.82667 17.249 3.70933 17.4944 3.624C17.7397 3.528 18.017 3.48 18.3264 3.48C18.6037 3.48 18.849 3.512 19.0624 3.576C19.2757 3.64 19.457 3.72533 19.6064 3.832C19.7664 3.93867 19.8944 4.056 19.9904 4.184C20.097 4.312 20.1824 4.44533 20.2464 4.584C20.3957 4.91467 20.4757 5.28267 20.4864 5.688V10.232C20.4864 10.456 20.5504 10.6213 20.6784 10.728C20.8064 10.824 20.9344 10.872 21.0624 10.872ZM28.6086 3.864C28.47 3.864 28.3366 3.91733 28.2086 4.024C28.0913 4.12 28.0326 4.28 28.0326 4.504V10.232C28.0326 10.456 28.0913 10.6213 28.2086 10.728C28.3366 10.824 28.47 10.872 28.6086 10.872C28.6513 10.872 28.6726 10.8987 28.6726 10.952C28.6726 11.0053 28.646 11.032 28.5926 11.032H28.0326H26.4646C26.2513 11.032 26.0593 10.9733 25.8886 10.856C25.7286 10.728 25.6166 10.568 25.5526 10.376C25.318 10.5893 25.0726 10.7547 24.8166 10.872C24.5713 10.9787 24.3366 11.032 24.1126 11.032C23.654 11.032 23.2326 10.968 22.8486 10.84C22.4646 10.7013 22.1286 10.4987 21.8406 10.232C21.5633 9.96533 21.3446 9.62933 21.1846 9.224C21.0353 8.808 20.9606 8.31733 20.9606 7.752C20.9606 7.144 21.03 6.58933 21.1686 6.088C21.318 5.58667 21.526 5.16 21.7926 4.808C22.07 4.456 22.4006 4.184 22.7846 3.992C23.1793 3.8 23.622 3.704 24.1126 3.704C24.646 3.704 25.1366 3.896 25.5846 4.28C25.6593 4.10933 25.7713 3.97067 25.9206 3.864C26.0806 3.75733 26.262 3.704 26.4646 3.704H28.0326H28.5926C28.646 3.704 28.6726 3.73067 28.6726 3.784C28.6726 3.83733 28.6513 3.864 28.6086 3.864ZM24.5126 10.44C24.694 10.44 24.8486 10.36 24.9766 10.2C25.1046 10.0293 25.206 9.80533 25.2806 9.528C25.366 9.24 25.4246 8.90933 25.4566 8.536C25.4886 8.16267 25.5046 7.77333 25.5046 7.368C25.5046 6.96267 25.494 6.57333 25.4726 6.2C25.4513 5.82667 25.4033 5.50133 25.3286 5.224C25.2646 4.936 25.1686 4.712 25.0406 4.552C24.9126 4.38133 24.7366 4.296 24.5126 4.296C24.342 4.296 24.1873 4.38133 24.0486 4.552C23.91 4.712 23.7873 4.936 23.6806 5.224C23.5846 5.50133 23.51 5.82667 23.4566 6.2C23.4033 6.57333 23.3766 6.96267 23.3766 7.368C23.3766 7.77333 23.4033 8.16267 23.4566 8.536C23.51 8.90933 23.5846 9.24 23.6806 9.528C23.7873 9.80533 23.91 10.0293 24.0486 10.2C24.1873 10.36 24.342 10.44 24.5126 10.44Z" fill="#CD4662"/>
</svg>
