<svg width="28" height="28" viewBox="0 0 28 28" fill="none" xmlns="http://www.w3.org/2000/svg">
<path d="M23.3334 26L14 16.6667L10.8667 19.8C11.0445 20.1333 11.1667 20.4889 11.2334 20.8667C11.3 21.2444 11.3334 21.6222 11.3334 22C11.3334 23.4667 10.8111 24.7222 9.76669 25.7667C8.72224 26.8111 7.46669 27.3333 6.00002 27.3333C4.53335 27.3333 3.2778 26.8111 2.23335 25.7667C1.18891 24.7222 0.666687 23.4667 0.666687 22C0.666687 20.5333 1.18891 19.2778 2.23335 18.2333C3.2778 17.1889 4.53335 16.6667 6.00002 16.6667C6.3778 16.6667 6.75558 16.7 7.13335 16.7667C7.51113 16.8333 7.86669 16.9555 8.20002 17.1333L11.3334 14L8.20002 10.8667C7.86669 11.0444 7.51113 11.1667 7.13335 11.2333C6.75558 11.3 6.3778 11.3333 6.00002 11.3333C4.53335 11.3333 3.2778 10.8111 2.23335 9.76666C1.18891 8.72221 0.666687 7.46666 0.666687 5.99999C0.666687 4.53332 1.18891 3.27777 2.23335 2.23332C3.2778 1.18888 4.53335 0.666656 6.00002 0.666656C7.46669 0.666656 8.72224 1.18888 9.76669 2.23332C10.8111 3.27777 11.3334 4.53332 11.3334 5.99999C11.3334 6.37777 11.3 6.75555 11.2334 7.13332C11.1667 7.5111 11.0445 7.86666 10.8667 8.19999L27.3334 24.6667V26H23.3334ZM18 12.6667L15.3334 9.99999L23.3334 1.99999H27.3334V3.33332L18 12.6667ZM6.00002 8.66666C6.73335 8.66666 7.36113 8.40555 7.88335 7.88332C8.40558 7.3611 8.66669 6.73332 8.66669 5.99999C8.66669 5.26666 8.40558 4.63888 7.88335 4.11666C7.36113 3.59443 6.73335 3.33332 6.00002 3.33332C5.26669 3.33332 4.63891 3.59443 4.11669 4.11666C3.59446 4.63888 3.33335 5.26666 3.33335 5.99999C3.33335 6.73332 3.59446 7.3611 4.11669 7.88332C4.63891 8.40555 5.26669 8.66666 6.00002 8.66666ZM14 14.6667C14.1778 14.6667 14.3334 14.6 14.4667 14.4667C14.6 14.3333 14.6667 14.1778 14.6667 14C14.6667 13.8222 14.6 13.6667 14.4667 13.5333C14.3334 13.4 14.1778 13.3333 14 13.3333C13.8222 13.3333 13.6667 13.4 13.5334 13.5333C13.4 13.6667 13.3334 13.8222 13.3334 14C13.3334 14.1778 13.4 14.3333 13.5334 14.4667C13.6667 14.6 13.8222 14.6667 14 14.6667ZM6.00002 24.6667C6.73335 24.6667 7.36113 24.4055 7.88335 23.8833C8.40558 23.3611 8.66669 22.7333 8.66669 22C8.66669 21.2667 8.40558 20.6389 7.88335 20.1167C7.36113 19.5944 6.73335 19.3333 6.00002 19.3333C5.26669 19.3333 4.63891 19.5944 4.11669 20.1167C3.59446 20.6389 3.33335 21.2667 3.33335 22C3.33335 22.7333 3.59446 23.3611 4.11669 23.8833C4.63891 24.4055 5.26669 24.6667 6.00002 24.6667Z" fill="#CE4563"/>
</svg>
